<svg width="45" height="45" viewBox="0 0 45 45" fill="none" xmlns="http://www.w3.org/2000/svg">
<rect width="45" height="45" rx="5" fill="white"/>
<g clip-path="url(#clip0_23_3103)">
<rect width="27" height="27" transform="translate(8.99997 9)" fill="white"/>
<path d="M34.5098 36.0001C35.3327 36.0001 36 35.3329 36 34.5099V10.4902C36 9.66709 35.3327 9 34.5098 9H10.4901C9.66695 9 8.99997 9.66709 8.99997 10.4902V34.5099C8.99997 35.3329 9.66695 36.0001 10.4901 36.0001H34.5098Z" fill="#395185"/>
<path d="M27.6294 36.0001V25.5442H31.1391L31.6646 21.4695H27.6294V18.8678C27.6294 17.688 27.9571 16.884 29.6489 16.884L31.8067 16.883V13.2386C31.4334 13.1889 30.1526 13.0779 28.6625 13.0779C25.5514 13.0779 23.4215 14.9769 23.4215 18.4643V21.4695H19.9029V25.5442H23.4215V36.0001H27.6294Z" fill="white"/>
</g>
<defs>
<clipPath id="clip0_23_3103">
<rect width="27" height="27" fill="white" transform="translate(8.99997 9)"/>
</clipPath>
</defs>
</svg>
