<svg width="111" height="111" viewBox="0 0 111 111" fill="none" xmlns="http://www.w3.org/2000/svg">
<g clip-path="url(#clip0_11_1873)">
<path d="M55.5 9.25C29.97 9.25 9.25 29.97 9.25 55.5C9.25 81.03 29.97 101.75 55.5 101.75C81.03 101.75 101.75 81.03 101.75 55.5C101.75 29.97 81.03 9.25 55.5 9.25ZM55.5 92.5C35.1038 92.5 18.5 75.8962 18.5 55.5C18.5 35.1038 35.1038 18.5 55.5 18.5C75.8962 18.5 92.5 35.1038 92.5 55.5C92.5 75.8962 75.8962 92.5 55.5 92.5ZM73.445 38.3412L46.25 65.5363L37.555 56.8413C35.7512 55.0375 32.8375 55.0375 31.0338 56.8413C29.23 58.645 29.23 61.5588 31.0338 63.3625L43.0125 75.3413C44.8162 77.145 47.73 77.145 49.5337 75.3413L80.0125 44.8625C81.8162 43.0588 81.8162 40.145 80.0125 38.3412C78.2087 36.5375 75.2487 36.5375 73.445 38.3412Z" fill="#2FFEBA"/>
</g>
<defs>
<clipPath id="clip0_11_1873">
<rect width="111" height="111" fill="white"/>
</clipPath>
</defs>
</svg>
