<svg width="45" height="45" viewBox="0 0 45 45" fill="none" xmlns="http://www.w3.org/2000/svg">
<rect width="45" height="45" rx="5" fill="white"/>
<path d="M33.5312 20.2967H32.625V20.25H22.5V24.75H28.8579C27.9303 27.3696 25.4379 29.25 22.5 29.25C18.7723 29.25 15.75 26.2277 15.75 22.5C15.75 18.7723 18.7723 15.75 22.5 15.75C24.2207 15.75 25.7861 16.3991 26.978 17.4594L30.1601 14.2774C28.1508 12.4048 25.4632 11.25 22.5 11.25C16.2872 11.25 11.25 16.2872 11.25 22.5C11.25 28.7128 16.2872 33.75 22.5 33.75C28.7128 33.75 33.75 28.7128 33.75 22.5C33.75 21.7457 33.6723 21.0094 33.5312 20.2967Z" fill="#FFC107"/>
<path d="M12.5471 17.2637L16.2433 19.9744C17.2434 17.4983 19.6655 15.75 22.5 15.75C24.2207 15.75 25.7861 16.3991 26.978 17.4594L30.1601 14.2774C28.1508 12.4048 25.4632 11.25 22.5 11.25C18.1788 11.25 14.4315 13.6896 12.5471 17.2637Z" fill="#FF3D00"/>
<path d="M22.5 33.75C25.4058 33.75 28.0462 32.6379 30.0425 30.8295L26.5606 27.8831C25.3932 28.771 23.9667 29.2512 22.5 29.25C19.5738 29.25 17.0893 27.3842 16.1533 24.7804L12.4846 27.6069C14.3465 31.2502 18.1276 33.75 22.5 33.75Z" fill="#4CAF50"/>
<path d="M33.5312 20.2967H32.625V20.25H22.5V24.75H28.8579C28.4142 25.9967 27.615 27.0862 26.559 27.8837L26.5607 27.8826L30.0425 30.8289C29.7962 31.0528 33.75 28.125 33.75 22.5C33.75 21.7457 33.6723 21.0094 33.5312 20.2967Z" fill="#1976D2"/>
</svg>
